<svg version="1.0" xmlns="http://www.w3.org/2000/svg" width="1200.000000pt" height="1412.000000pt" viewBox="0 0 1200.000000 1412.000000" preserveAspectRatio="xMidYMid meet">
  <metadata>
    Created by potrace 1.16, written by Peter Selinger 2001-2019
  </metadata>
  <g transform="translate(0.000000,1412.000000) scale(0.100000,-0.100000)" fill="#000000" stroke="none">
    <path
      d="M5689 13726 c-2 -2 -105 -6 -229 -10 -124 -4 -237 -8 -250 -10 -14
-3 -72 -7 -130 -10 -58 -4 -127 -8 -155 -11 -27 -3 -78 -7 -113 -10 -240 -20
-330 -29 -512 -51 -654 -79 -1309 -212 -1875 -379 -178 -53 -414 -130 -419
-137 -1 -2 -8 -25 -14 -53 -6 -27 -41 -176 -77 -330 -238 -1016 -404 -2076
-470 -2995 -49 -688 -45 -1405 10 -2050 81 -925 282 -1804 600 -2620 48 -124
143 -350 151 -359 1 -2 43 18 91 44 449 243 863 539 1276 912 122 111 128 118
122 147 -16 80 -35 245 -41 357 -6 112 8 367 23 427 l5 22 -589 0 c-640 0
-643 0 -740 57 -57 33 -144 130 -188 207 -34 62 -36 63 -83 69 -111 13 -226
80 -289 169 -51 71 -73 143 -73 240 1 207 133 359 352 403 23 4 34 18 57 69
75 165 190 281 316 317 16 5 514 9 1105 9 l1075 0 105 66 c415 262 921 391
1397 356 379 -27 746 -143 1054 -332 l97 -60 1650 -7 1649 -6 6 174 c46 1200
-119 2705 -462 4219 -74 329 -124 544 -127 549 -11 16 -551 177 -821 245 -537
135 -1212 251 -1748 301 -93 8 -188 17 -210 20 -124 14 -465 35 -740 45 -261
10 -777 14 -786 6z m-2558 -2562 c137 -619 210 -920 261 -1088 22 -71 22 -71
29 -36 4 19 15 181 24 360 19 348 16 598 -9 730 -7 41 -13 76 -12 77 1 1 394
21 510 25 l60 2 12 -48 c7 -26 14 -50 17 -52 2 -3 38 20 78 51 115 86 231 119
353 101 l46 -7 0 -60 c0 -32 2 -59 5 -59 3 0 29 17 58 39 69 52 99 66 204 97
162 48 430 44 588 -8 l61 -19 -4 -212 c-2 -117 -5 -213 -7 -215 -1 -1 -36 13
-77 32 -120 55 -201 76 -287 76 -58 0 -84 -5 -108 -20 -65 -39 -53 -50 182
-166 132 -65 232 -121 260 -146 25 -22 47 -39 49 -37 2 2 9 43 15 92 26 196
85 322 211 448 129 130 269 197 458 221 152 18 343 -24 461 -103 101 -67 193
-200 243 -349 l18 -55 -5 75 c-5 71 -41 333 -51 375 -5 20 -3 20 218 8 123 -6
242 -12 265 -12 41 -1 43 -3 64 -50 l21 -50 76 39 c307 157 633 45 732 -250
19 -55 24 -107 35 -345 8 -154 14 -282 14 -285 1 -2 13 19 27 47 91 176 276
301 543 367 l132 32 -22 28 c-32 40 -77 56 -161 56 -93 0 -197 -36 -328 -112
-52 -31 -97 -54 -100 -51 -8 8 -39 468 -32 475 12 13 185 38 315 47 347 23
600 -40 742 -183 113 -114 157 -234 180 -496 26 -282 45 -452 60 -520 20 -86
65 -210 76 -210 6 0 8 36 5 88 -3 48 -8 137 -11 197 -7 128 -106 1054 -136
1260 -23 160 -53 327 -73 400 l-13 51 301 -54 c165 -29 303 -58 307 -63 3 -5
52 -382 108 -837 90 -717 143 -1075 166 -1112 4 -7 -193 -9 -596 -8 l-603 3
-16 30 c-8 17 -15 31 -16 33 -1 1 -26 -13 -57 -31 -94 -57 -156 -72 -292 -72
-91 0 -133 5 -175 19 -127 43 -202 97 -263 190 l-39 61 5 -60 c4 -33 9 -86 13
-117 l7 -58 -320 0 -319 0 7 58 c11 85 10 568 -1 800 -12 248 -17 262 -90 262
-41 0 -56 -5 -82 -29 l-33 -30 2 -208 c4 -279 20 -546 44 -706 10 -73 19 -135
19 -139 0 -5 -149 -8 -331 -8 l-331 0 6 28 c3 15 8 72 12 127 l7 99 -69 -63
c-155 -142 -312 -201 -536 -201 -221 0 -402 61 -547 183 -53 45 -92 91 -161
188 -16 21 -17 20 -48 -43 -71 -144 -253 -267 -457 -309 -188 -39 -435 -16
-636 60 -99 38 -92 9 -83 325 l7 278 61 -60 c163 -158 308 -232 453 -232 114
0 167 42 126 99 -12 16 -97 66 -223 131 -153 79 -219 119 -262 158 -76 71
-119 156 -126 252 -5 68 -6 70 -31 70 -67 -1 -167 -78 -212 -163 -36 -68 -58
-182 -70 -359 -11 -165 -7 -495 7 -545 l6 -23 -635 0 -636 0 -5 33 c-3 17 -12
82 -21 142 -8 61 -21 135 -28 165 l-12 55 -210 -3 c-116 -2 -213 -7 -217 -10
-14 -14 -98 -338 -98 -378 0 -2 -139 -4 -310 -4 -170 0 -310 2 -310 5 0 3 13
32 30 64 87 173 218 509 418 1076 137 388 155 446 177 569 18 108 19 137 1
202 l-13 51 346 52 c190 29 369 56 396 60 28 5 55 8 60 6 6 -1 76 -298 156
-661z"/>
    <path d="M6098 10960 c-45 -35 -70 -105 -76 -209 -6 -108 -17 -101 103 -56
131 48 155 65 155 107 0 45 -21 120 -42 151 -17 23 -26 27 -67 27 -33 0 -56
-6 -73 -20z"/>
    <path d="M2487 10720 c-31 -88 -57 -162 -57 -166 0 -8 176 -1 185 8 7 7 -53
298 -64 311 -4 4 -33 -64 -64 -153z"/>
    <path d="M6772 10559 c-24 -10 -184 -71 -355 -136 -172 -64 -314 -118 -317
-120 -9 -7 35 -75 73 -113 104 -105 277 -90 436 38 31 25 61 49 68 54 8 7 33
-18 84 -81 39 -50 73 -91 75 -91 2 0 4 106 4 235 0 182 -3 235 -12 234 -7 0
-32 -9 -56 -20z"/>
    <path d="M8851 10409 c-117 -59 -156 -175 -85 -259 36 -42 88 -54 148 -34 l47
16 -6 82 c-15 212 -17 226 -29 226 -7 0 -41 -14 -75 -31z"/>
    <path
      d="M1675 12980 c-11 -5 -99 -38 -195 -73 -169 -62 -541 -207 -549 -213
-8 -7 -132 -485 -186 -714 -171 -736 -275 -1417 -331 -2150 -21 -282 -30
-1017 -15 -1300 70 -1360 368 -2551 917 -3660 106 -214 247 -475 269 -498 10
-11 38 -4 161 46 82 33 184 76 226 95 l77 35 -89 194 c-469 1028 -733 2159
-800 3433 -13 245 -13 985 0 1230 56 1057 208 2071 491 3275 38 163 69 299 69
303 0 9 -20 8 -45 -3z"/>
    <path
      d="M10270 12986 c0 -2 22 -95 49 -207 368 -1512 552 -2978 527 -4198 -3
-177 -9 -363 -13 -412 l-6 -89 366 0 365 0 6 38 c32 215 44 1277 18 1637 -63
871 -187 1639 -402 2495 -56 220 -115 439 -121 444 -8 7 -499 197 -635 245
-140 50 -154 55 -154 47z"/>
    <path
      d="M11070 7048 c-184 -9 -340 -17 -346 -17 -6 -1 -14 -25 -18 -55 -3
-29 -24 -147 -47 -262 -368 -1894 -1270 -3485 -2739 -4838 -535 -492 -1145
-955 -1807 -1370 -51 -32 -93 -60 -93 -63 0 -7 385 193 570 297 682 383 1359
854 1870 1299 302 264 691 646 911 896 942 1070 1576 2259 1928 3615 54 208
113 478 109 498 -3 16 -26 16 -338 0z"/>
    <path
      d="M10310 6913 c-19 -1 -174 -10 -345 -18 -170 -8 -362 -18 -426 -22
l-116 -6 -17 -46 c-24 -67 -79 -136 -139 -175 -87 -58 -376 -140 -782 -221
l-190 -38 -1 -161 c-2 -349 -79 -676 -233 -991 -122 -249 -251 -428 -455 -630
-348 -346 -751 -554 -1246 -644 -271 -50 -600 -41 -895 25 -482 108 -943 387
-1260 764 l-66 78 -108 -68 c-413 -262 -809 -432 -1368 -585 -157 -44 -166
-45 -180 -28 -41 52 183 -333 307 -527 337 -528 717 -996 1205 -1486 414 -416
848 -784 1352 -1146 234 -168 657 -448 663 -439 3 5 59 44 125 87 1273 828
2259 1767 2974 2834 504 751 881 1574 1121 2450 85 310 145 585 215 973 4 27
4 27 -48 25 -28 -1 -68 -3 -87 -5z"/>
    <path d="M7450 6235 c-96 -12 -299 -37 -450 -55 -151 -18 -278 -36 -282 -39
-6 -5 790 -533 824 -546 12 -5 25 22 56 117 57 173 92 361 92 501 0 47 0 47
-32 46 -18 -1 -112 -11 -208 -24z"/>
    <path d="M5390 5657 c-52 -35 -240 -157 -417 -271 -178 -115 -323 -212 -323
-216 0 -15 184 -202 258 -262 143 -115 305 -207 468 -267 81 -29 293 -81 333
-81 l21 0 -1 513 0 512 -58 28 c-32 16 -81 46 -109 68 -29 21 -58 39 -65 39
-7 0 -55 -28 -107 -63z"/>
    <path d="M6390 5679 c-30 -23 -83 -55 -118 -73 l-63 -31 7 -510 c4 -280 7
-511 8 -511 4 -6 240 49 307 71 120 39 308 134 419 213 83 58 359 317 349 326
-8 7 -850 556 -852 556 -1 0 -27 -19 -57 -41z"/>
    <path
      d="M2145 4135 c-33 -8 -130 -26 -215 -41 -85 -15 -157 -28 -159 -30 -10
-9 289 -438 453 -649 787 -1016 1823 -1900 3051 -2602 301 -172 692 -379 701
-371 1 2 -36 28 -84 58 -937 583 -1831 1319 -2478 2040 -425 476 -803 992
-1089 1493 -75 131 -67 127 -180 102z"/>
  </g>
</svg>