<?xml version="1.0" standalone="no"?>
<!DOCTYPE svg PUBLIC "-//W3C//DTD SVG 20010904//EN" "http://www.w3.org/TR/2001/REC-SVG-20010904/DTD/svg10.dtd">
<svg version="1.0" xmlns="http://www.w3.org/2000/svg" width="1010.000000pt" height="1024.000000pt" viewBox="0 0 1010.000000 1024.000000" preserveAspectRatio="xMidYMid meet">
  <metadata>
    Created by potrace 1.16, written by Peter Selinger 2001-2019
  </metadata>
  <g transform="translate(0.000000,1024.000000) scale(0.100000,-0.100000)" fill="#000000" stroke="none">
    <path
      d="M4984 10110 c-82 -46 -209 -202 -297 -360 -16 -29 -19 -31 -36 -19
-86 63 -244 166 -293 190 -32 16 -100 44 -151 62 -85 29 -102 31 -222 32 -128
0 -131 -1 -199 -34 -147 -71 -258 -231 -309 -444 l-23 -98 -146 -63 c-316
-137 -654 -337 -928 -550 -287 -223 -596 -530 -812 -807 l-75 -97 -6 77 c-8
124 -57 227 -131 278 -31 22 -50 28 -95 28 -88 -1 -133 -29 -238 -148 -49 -56
-193 -208 -319 -337 -239 -244 -272 -288 -281 -374 -3 -22 0 -61 7 -84 13 -51
72 -119 117 -139 43 -17 145 -17 188 1 l35 15 0 -85 c0 -100 13 -84 -187 -230
l-133 -97 0 -86 c0 -173 39 -408 95 -578 77 -230 203 -417 351 -519 58 -40 61
-54 11 -54 -58 0 -198 -40 -285 -80 -255 -120 -431 -340 -498 -625 -21 -92
-21 -285 0 -383 69 -317 299 -571 606 -670 96 -31 172 -42 288 -42 l105 0 -55
-57 c-171 -181 -249 -421 -219 -671 49 -401 480 -1031 1016 -1483 438 -369
992 -669 1605 -869 l145 -47 45 -86 c112 -215 228 -317 404 -354 89 -18 193
-10 295 23 91 31 140 59 211 122 l54 49 34 -56 c40 -68 121 -152 182 -190 78
-49 139 -64 253 -59 89 3 110 8 171 36 86 40 178 132 226 224 l34 66 61 -62
c70 -69 152 -117 240 -139 210 -53 376 -15 512 115 68 66 146 182 183 273 l22
54 111 37 c434 144 970 410 1297 643 499 357 925 830 1156 1283 122 240 165
423 144 610 -22 200 -88 343 -221 483 l-57 60 141 0 c113 1 158 5 222 22 319
86 555 320 647 640 19 65 23 103 23 233 0 166 -8 215 -55 335 -126 319 -401
524 -763 570 l-49 6 49 31 c71 45 182 162 237 251 131 210 209 493 223 808 l6
136 -84 58 c-46 32 -114 83 -151 112 l-68 54 0 94 0 94 37 -16 c25 -10 59 -14
105 -11 55 3 75 9 109 33 62 44 84 93 84 185 -1 59 -6 85 -24 120 -14 26 -129
152 -276 305 -139 143 -281 292 -315 332 -75 87 -130 117 -210 118 -128 0
-217 -125 -228 -321 l-5 -91 -65 86 c-110 145 -210 259 -357 410 -429 440
-904 768 -1455 1005 l-104 45 -22 88 c-29 116 -47 164 -90 241 -50 89 -137
173 -221 213 -60 29 -80 34 -168 37 -197 8 -381 -62 -625 -236 l-84 -61 -46
92 c-143 289 -266 378 -406 297z m151 -65 c68 -51 182 -237 171 -279 l-6 -24
-250 0 c-240 0 -250 0 -250 19 0 17 8 19 75 19 85 0 119 13 159 60 38 46 34
57 -28 70 -84 17 -83 39 8 122 48 45 77 48 121 13z m-1017 -121 c37 -8 92 -27
122 -42 63 -32 90 -74 98 -153 5 -54 13 -49 -118 -74 -103 -20 -317 -73 -460
-115 -118 -34 -120 -33 -140 40 -15 54 -11 91 14 139 l23 45 12 -36 c29 -87
129 -126 247 -97 59 15 114 66 114 105 0 69 -63 118 -123 95 -27 -11 -52 -45
-42 -61 3 -5 -4 -14 -16 -20 -16 -9 -24 -8 -40 6 -27 25 -32 48 -15 87 35 85
168 118 324 81z m2119 -12 c72 -37 99 -103 60 -148 -20 -23 -26 -25 -45 -15
-13 7 -20 16 -17 21 10 16 -15 50 -42 61 -60 23 -123 -26 -123 -95 0 -39 55
-90 114 -105 118 -29 218 10 247 97 l12 36 25 -49 c19 -39 23 -58 19 -95 -7
-55 -36 -122 -51 -117 -91 35 -401 118 -561 151 l-110 23 -3 32 c-5 48 25 128
56 149 32 22 121 58 177 71 68 17 194 8 242 -17z m-947 -262 c631 -37 1180
-187 1727 -470 403 -209 750 -465 1089 -804 212 -213 291 -306 505 -598 346
-471 560 -701 842 -905 l117 -85 0 -74 c0 -98 -24 -276 -54 -400 -97 -396
-310 -649 -608 -719 -91 -21 -248 -19 -344 5 -119 30 -283 116 -405 214 -181
145 -330 313 -553 625 -125 174 -229 309 -334 431 -100 116 -345 363 -441 443
-484 409 -998 642 -1537 697 -226 24 -552 4 -779 -46 -422 -93 -864 -323
-1255 -654 -187 -158 -468 -468 -666 -735 -74 -99 -174 -234 -223 -300 -224
-302 -450 -508 -674 -616 -293 -139 -617 -95 -832 115 -194 189 -314 511 -332
887 l-6 125 69 49 c312 220 534 455 909 965 189 257 267 351 445 534 891 917
2091 1390 3340 1316z m-4055 -1521 c28 -11 78 -40 110 -67 l60 -48 3 -110 3
-110 -39 -59 c-87 -134 -322 -414 -466 -555 l-66 -64 0 88 0 88 103 107 c56
59 136 152 178 207 79 103 179 254 179 270 0 6 -15 15 -32 22 -54 20 -129 81
-144 117 -17 42 -18 117 -2 133 13 13 37 9 113 -19z m7743 19 c16 -16 15 -91
-2 -133 -15 -36 -90 -97 -143 -117 -18 -7 -33 -17 -33 -23 0 -16 109 -180 187
-280 38 -49 116 -138 171 -196 l102 -107 0 -88 0 -88 -66 64 c-144 141 -379
421 -466 554 l-38 59 0 108 0 107 36 31 c58 51 109 82 171 101 71 23 66 23 81
8z m-7886 -228 c18 -19 47 -45 63 -57 l30 -21 -21 -29 c-35 -48 -548 -512
-566 -513 -10 0 -32 13 -50 29 -27 24 -32 36 -36 88 -3 44 0 69 13 94 10 19
104 123 210 231 106 108 215 222 241 252 l49 55 17 -47 c10 -26 32 -63 50 -82z
m8304 -210 c89 -91 170 -180 179 -199 12 -25 16 -51 13 -94 -4 -52 -9 -64 -36
-88 -18 -16 -40 -29 -50 -29 -18 1 -531 465 -566 513 l-21 29 30 21 c52 38 95
91 112 139 l17 46 80 -86 c44 -48 153 -161 242 -252z m-4036 214 c253 -31 557
-127 804 -254 114 -58 296 -168 344 -207 l27 -22 -1490 0 -1490 -1 100 66
c266 175 511 286 790 359 310 82 585 99 915 59z m1352 -611 l61 -48 -862 -3
c-473 -1 -1249 -1 -1723 0 l-861 3 58 48 57 47 1605 0 1605 0 60 -47z m-3402
-538 l0 -465 1745 0 1745 0 0 -60 0 -60 -130 0 c-123 0 -130 -1 -130 -20 0
-20 -7 -20 -1484 -20 -1475 0 -1484 0 -1489 20 -5 19 -14 20 -131 20 l-126 0
0 -120 0 -120 1745 0 1745 0 -2 -1267 -3 -1268 -23 -49 c-32 -69 -65 -110
-125 -154 -93 -68 -1400 -905 -1470 -941 -89 -46 -164 -53 -242 -21 -31 12
-54 25 -51 27 2 3 40 17 84 32 99 35 160 70 200 116 60 68 54 91 -64 264 -74
107 -110 194 -95 228 6 13 41 42 78 66 134 86 138 121 28 272 -77 107 -135
227 -142 299 -3 31 -2 56 3 56 5 0 155 -155 333 -345 177 -189 332 -347 343
-350 49 -16 65 41 44 161 -20 115 -20 221 1 364 27 186 9 226 -103 245 -69 11
-69 11 -72 45 -2 19 4 72 14 119 l18 84 -23 18 c-38 31 -58 27 -142 -28 -39
-26 -87 -30 -95 -9 -7 18 75 178 116 228 l30 37 57 -20 c81 -27 210 -92 261
-129 l42 -32 0 -541 c0 -298 4 -547 8 -553 25 -38 120 -46 152 -14 20 20 20
33 20 574 l0 555 29 43 c40 61 53 109 50 186 -2 55 1 73 19 102 44 70 20 193
-59 314 -39 58 -39 58 -39 162 l0 104 140 0 140 0 0 225 c0 225 0 225 26 266
l25 41 -56 101 c-31 56 -60 105 -64 110 -4 4 -34 -41 -68 -100 l-61 -108 24
-41 c22 -37 24 -52 24 -162 l0 -122 -70 0 -70 0 0 128 c0 111 3 130 20 152 11
14 20 31 20 39 0 21 -114 221 -122 213 -4 -4 -32 -52 -63 -107 l-57 -100 26
-47 c25 -44 26 -54 24 -160 l-3 -113 -70 0 -70 0 -3 117 c-2 112 -1 119 23
159 l26 41 -56 101 c-31 56 -60 106 -65 110 -4 5 -35 -40 -68 -100 l-60 -108
24 -41 c23 -40 24 -46 24 -267 l0 -227 140 0 140 0 0 -74 0 -73 -68 -5 c-56
-4 -90 -15 -183 -58 -134 -62 -194 -71 -194 -30 0 20 15 35 75 75 54 36 75 56
75 71 0 15 -28 44 -95 96 -78 61 -95 79 -92 99 1 13 6 92 11 174 12 199 46
302 133 400 l30 35 -94 0 -95 0 -53 118 c-29 64 -55 120 -59 124 -3 4 -38 -49
-76 -117 l-70 -125 -72 0 -71 0 -62 118 c-34 64 -65 121 -70 126 -4 4 -35 -49
-68 -118 l-61 -126 -95 0 -95 0 91 -141 c129 -201 208 -376 208 -462 0 -35 -6
-46 -59 -96 -73 -70 -97 -105 -112 -165 -19 -76 0 -143 71 -251 79 -120 79
-133 1 -293 -35 -70 -69 -125 -81 -132 -35 -19 -63 -8 -82 30 -23 48 -42 242
-42 435 l-1 161 78 153 c43 84 77 154 75 155 -1 1 -18 8 -36 16 -46 18 -132
115 -168 190 -37 76 -79 205 -89 272 -4 26 -13 55 -20 64 -11 16 -15 13 -40
-24 -15 -23 -37 -45 -49 -48 -12 -3 -47 6 -79 21 -57 25 -102 31 -123 17 -6
-4 -37 -59 -69 -122 -31 -63 -64 -123 -72 -132 -28 -31 -70 -32 -159 -2 -46
15 -86 25 -89 22 -3 -3 11 -40 31 -83 37 -80 63 -193 64 -277 0 -26 5 -50 11
-54 6 -3 34 16 62 43 107 103 177 144 275 163 105 21 174 -13 157 -77 -9 -39
-49 -85 -99 -117 -24 -15 -47 -34 -50 -42 -7 -18 3 -44 17 -44 29 0 96 -43
106 -68 15 -38 21 -153 31 -602 9 -397 16 -472 50 -540 39 -76 92 -99 234
-100 l99 0 -7 -122 c-4 -68 -14 -172 -22 -232 -28 -220 -18 -283 66 -396 27
-37 62 -93 76 -125 24 -52 26 -66 21 -134 -3 -42 -10 -86 -14 -98 -8 -20 -10
-20 -64 16 -30 20 -87 56 -125 80 -38 25 -107 69 -154 100 -91 58 -184 118
-292 188 -38 23 -99 63 -138 88 -38 25 -101 65 -140 90 -38 25 -103 66 -142
92 -278 178 -330 222 -365 313 -17 42 -18 158 -21 1944 -2 1896 -2 1926 29
1926 5 0 9 -205 9 -465z m1459 263 l96 -3 3 -227 2 -227 -102 -3 -103 -3 -3
-52 -3 -53 256 0 256 0 -3 53 -3 52 -103 3 -102 3 2 227 3 227 96 3 96 3 29
60 28 61 30 -61 30 -61 98 0 98 0 0 -230 0 -229 -102 -3 -103 -3 0 -50 0 -50
248 -3 247 -2 0 55 0 55 -105 0 -105 0 2 228 3 227 96 3 96 3 28 60 29 60 34
-61 34 -60 94 0 94 0 0 -230 0 -230 -100 0 -100 0 0 -55 0 -55 125 0 125 0 0
-60 0 -60 -1131 2 -1131 3 -38 100 c-20 55 -34 101 -30 103 4 1 94 -18 201
-43 l193 -45 199 0 198 0 -3 53 -3 52 -103 3 -102 3 2 227 3 227 96 3 96 3 29
60 28 61 30 -61 30 -60 95 -3z m-921 -4308 c398 -255 719 -466 713 -468 -18
-6 -287 64 -427 111 -501 169 -998 460 -1444 844 -126 109 -262 242 -500 489
-138 144 -163 165 -230 197 -90 43 -175 65 -293 74 l-88 6 74 76 c178 184 257
381 257 638 0 314 -150 588 -418 761 l-63 41 38 6 c161 27 331 103 479 212
107 80 311 283 415 413 42 52 122 160 179 240 182 257 322 430 480 594 l95 98
5 -1933 5 -1934 723 -465z m3414 4029 c103 -124 203 -255 317 -417 349 -495
682 -765 1020 -829 l89 -17 -60 -35 c-78 -46 -197 -157 -254 -237 -110 -155
-167 -335 -167 -529 0 -253 84 -457 260 -636 l74 -76 -98 -6 c-244 -16 -371
-81 -553 -285 -479 -536 -1053 -958 -1656 -1217 -148 -64 -433 -157 -578 -190
-65 -14 -120 -24 -122 -22 -3 2 321 213 718 469 l723 464 3 1935 3 1934 93
-96 c51 -53 135 -147 188 -210z m-3013 -33 c-40 -111 -73 -202 -74 -204 -1 -1
-62 12 -135 30 l-132 34 203 217 204 217 3 -47 c3 -37 -11 -85 -69 -247z
m-3021 -1236 c288 -82 507 -306 583 -599 29 -108 28 -287 0 -396 -99 -376
-419 -627 -801 -627 -221 0 -411 75 -568 226 -115 109 -184 222 -227 371 -139
480 178 968 680 1049 67 10 261 -3 333 -24z m8100 0 c196 -55 361 -176 470
-343 95 -145 134 -282 133 -466 -1 -309 -178 -590 -456 -726 -136 -67 -240
-88 -400 -82 -142 5 -219 24 -330 79 -214 107 -361 283 -431 515 -23 76 -27
107 -28 223 0 111 3 149 21 212 92 319 321 534 643 603 92 20 283 13 378 -15z
m-4228 -423 c0 -12 -41 -119 -61 -159 -28 -58 -37 -53 -77 45 -53 128 -57 117
47 117 50 0 91 -2 91 -3z m668 -549 c32 -20 32 -20 32 -100 l0 -81 -57 6 c-69
7 -175 57 -201 95 -33 47 -34 60 -5 79 55 37 172 37 231 1z m-3993 -633 c39
-8 104 -31 145 -51 66 -32 91 -53 210 -178 74 -77 194 -199 265 -271 488 -487
1087 -870 1680 -1075 198 -68 426 -124 609 -149 71 -10 89 -18 164 -66 l85
-55 -39 0 c-64 0 -281 28 -394 50 -479 96 -946 293 -1408 596 -370 243 -610
452 -1063 930 -133 141 -229 184 -409 185 -160 1 -302 -61 -425 -185 -127
-129 -180 -260 -179 -451 0 -108 4 -130 32 -216 124 -374 514 -885 952 -1249
632 -526 1529 -906 2405 -1019 472 -61 979 -52 1440 25 668 111 1346 376 1895
739 528 350 1001 866 1226 1340 70 149 94 231 101 346 11 193 -47 349 -182
485 -127 127 -263 187 -423 186 -107 -1 -170 -15 -255 -60 -57 -29 -91 -59
-200 -176 -287 -309 -503 -507 -762 -701 -610 -458 -1260 -736 -1895 -810
-198 -24 -197 -24 -99 40 80 51 91 55 189 70 581 87 1193 358 1748 775 271
203 479 394 764 700 180 194 278 246 483 257 82 5 116 2 184 -16 219 -55 392
-195 487 -396 63 -131 88 -297 65 -431 -72 -425 -522 -1044 -1092 -1500 -105
-84 -391 -277 -514 -346 -361 -204 -814 -392 -1203 -498 -439 -119 -848 -173
-1312 -173 -357 0 -636 27 -975 94 -737 147 -1487 481 -2035 908 -553 431
-1019 1055 -1106 1481 -19 97 -15 247 11 341 71 264 293 474 560 529 65 13
195 11 270 -5z m1118 -1440 c45 -25 88 -49 96 -54 12 -7 -9 -52 -107 -228 -66
-120 -137 -252 -156 -293 -61 -127 -44 -204 56 -254 61 -30 87 -32 135 -9 54
25 96 87 247 361 l140 251 30 -18 c17 -10 61 -35 99 -56 37 -20 67 -40 67 -43
0 -3 -62 -118 -137 -255 -198 -359 -243 -402 -408 -402 -78 1 -100 5 -162 32
-82 35 -187 107 -228 155 -79 93 -98 212 -53 324 33 82 283 534 295 534 3 0
42 -20 86 -45z m4610 -53 c99 -43 197 -173 226 -302 37 -159 -30 -329 -170
-437 -30 -23 -125 -83 -213 -133 -124 -72 -160 -89 -167 -79 -36 56 -409 708
-409 716 0 14 346 208 415 232 126 46 219 47 318 3z m-941 -382 c9 -27 13 -52
10 -54 -4 -2 -60 -20 -124 -40 -78 -25 -118 -42 -118 -52 0 -32 62 -204 74
-204 6 0 59 16 116 35 57 19 109 35 115 35 12 0 47 -98 37 -104 -4 -2 -59 -20
-122 -41 -63 -21 -116 -39 -117 -39 -5 -4 78 -256 85 -256 4 0 69 21 145 46
76 25 144 44 151 41 15 -6 39 -89 28 -99 -7 -6 -505 -169 -508 -165 -4 6 -254
785 -254 793 0 9 417 151 451 153 10 1 21 -16 31 -49z m-2763 -13 l83 -23 142
-342 c77 -187 144 -338 147 -334 4 4 39 128 78 276 39 149 74 272 76 274 3 3
46 -6 97 -19 67 -17 93 -28 92 -39 -2 -28 -206 -785 -213 -793 -5 -4 -46 2
-91 15 l-84 23 -135 326 c-75 178 -141 335 -147 348 -8 20 -21 -18 -84 -255
-40 -153 -77 -283 -81 -288 -12 -14 -189 35 -189 52 0 7 47 189 105 404 58
215 105 392 105 394 0 7 13 4 99 -19z m2094 -208 l6 -46 -104 -13 c-57 -7
-109 -16 -115 -20 -9 -6 0 -95 38 -361 32 -228 46 -356 39 -360 -21 -14 -200
-31 -206 -20 -4 6 -29 168 -56 361 -26 192 -52 350 -56 350 -5 0 -56 -7 -115
-16 -58 -8 -108 -13 -111 -10 -3 3 -8 28 -11 55 l-4 49 43 7 c426 63 635 90
640 81 4 -6 9 -32 12 -57z m-942 -35 l44 -6 -22 -415 c-12 -228 -24 -417 -26
-420 -3 -2 -53 -1 -111 3 -88 6 -106 9 -106 23 0 9 9 178 20 376 11 198 20
379 20 403 l0 42 69 0 c37 0 88 -3 112 -6z m-692 -1234 c85 -12 92 -15 75 -27
-13 -10 -34 -13 -65 -9 -38 4 -50 1 -64 -14 -40 -44 27 -96 106 -84 22 4 67
24 101 46 l60 39 -6 -38 c-8 -40 -20 -54 -76 -83 -115 -59 -285 -67 -393 -18
-59 28 -162 116 -172 149 -4 11 1 41 10 68 l16 48 157 -32 c86 -18 199 -38
251 -45z m2077 -9 c8 -40 -77 -130 -163 -173 -113 -56 -282 -51 -403 12 -57
30 -68 43 -76 85 l-7 40 34 -26 c78 -59 148 -78 203 -55 41 17 55 50 31 76
-14 15 -26 18 -64 14 -31 -4 -52 -1 -64 8 -17 13 -6 16 100 32 65 9 177 30
248 45 l130 27 13 -29 c7 -16 15 -41 18 -56z m-1070 -66 c-11 -8 -39 -15 -63
-15 -33 0 -50 -6 -68 -25 -67 -66 24 -137 114 -90 16 8 47 35 70 61 23 26 43
45 46 42 3 -2 8 -18 11 -35 5 -28 0 -38 -40 -81 -87 -93 -205 -135 -320 -112
-80 16 -128 42 -193 103 -58 55 -64 76 -37 133 l16 34 242 0 c214 -1 239 -2
222 -15z"/>
    <path
      d="M4880 9553 c-924 -34 -1803 -376 -2530 -987 -325 -273 -499 -465
-852 -942 -81 -110 -187 -246 -235 -304 -138 -166 -373 -393 -511 -495 l-123
-90 6 -85 c13 -185 52 -364 110 -508 95 -236 260 -396 460 -447 76 -19 211
-19 295 1 270 63 568 326 911 804 465 650 938 1081 1474 1345 94 46 214 100
269 120 606 223 1277 211 1871 -32 611 -249 1130 -698 1670 -1443 345 -477
636 -731 907 -795 82 -19 218 -19 293 0 200 51 365 211 460 447 58 144 97 325
110 508 l6 85 -112 80 c-244 174 -512 466 -821 891 -283 390 -540 663 -875
931 -475 379 -1015 650 -1581 792 -280 70 -507 104 -817 121 -172 9 -214 10
-385 3z m120 -488 l0 -175 165 0 165 0 0 170 0 170 113 0 113 0 -3 -232 c-2
-128 -6 -318 -9 -423 l-6 -190 -110 3 -110 3 3 189 4 188 -35 6 c-19 3 -92 6
-161 6 -123 0 -127 -1 -133 -22 -3 -13 -6 -101 -6 -197 l0 -174 -52 7 c-29 3
-79 6 -110 6 l-58 0 0 178 c0 98 3 287 7 420 l6 242 109 0 108 0 0 -175z
m-545 121 c36 -11 40 -15 38 -44 0 -18 -4 -44 -7 -57 -6 -24 -6 -24 -52 -8
-94 32 -219 0 -293 -77 -137 -141 -93 -426 83 -535 45 -27 57 -30 135 -30 93
0 146 19 203 72 l26 25 36 -39 c19 -21 36 -41 36 -45 0 -10 -80 -73 -115 -91
-86 -43 -256 -66 -360 -48 -96 17 -167 55 -230 123 -92 100 -131 209 -123 352
4 62 11 95 33 141 36 75 120 160 202 203 120 63 289 88 388 58z m1567 -36 c13
-5 104 -37 203 -71 99 -34 190 -65 202 -70 21 -8 21 -9 5 -58 -9 -28 -20 -51
-24 -51 -5 0 -61 18 -125 40 -64 22 -120 37 -124 33 -4 -5 -23 -53 -42 -109
l-35 -101 124 -43 c84 -29 123 -47 120 -55 -2 -7 -10 -31 -17 -54 -14 -47 0
-48 -149 5 -52 19 -100 34 -106 34 -14 0 -97 -241 -87 -251 5 -3 71 -28 148
-54 77 -27 141 -49 142 -50 5 -3 -31 -105 -37 -105 -7 0 -503 170 -507 174 -2
1 58 179 132 396 74 216 135 394 135 396 0 7 18 4 42 -6z m-2347 -576 c120
-190 218 -352 219 -361 0 -10 -28 -34 -71 -60 l-71 -45 -349 130 c-191 71
-350 128 -352 126 -2 -2 218 -360 296 -480 13 -20 9 -24 -68 -73 -44 -28 -83
-51 -87 -51 -9 0 -442 695 -442 708 0 6 33 31 74 56 l74 46 348 -129 c192 -72
349 -129 351 -128 1 1 -68 112 -153 247 -84 135 -154 247 -154 250 0 4 159
108 167 110 0 0 99 -156 218 -346z m3289 183 c112 -51 193 -128 231 -220 l14
-35 -50 -21 -50 -20 -15 34 c-18 44 -69 102 -105 121 -39 20 -102 18 -130 -5
-35 -28 -30 -76 14 -158 133 -243 143 -312 64 -429 -22 -34 -49 -57 -87 -77
-50 -26 -62 -29 -132 -25 -100 6 -201 53 -282 133 -50 49 -106 137 -106 165 0
13 89 53 105 46 6 -2 17 -22 23 -43 19 -65 122 -152 180 -153 28 0 78 31 95
59 29 50 21 83 -55 228 -71 136 -72 139 -73 214 0 67 4 81 30 125 44 72 97 97
195 92 54 -3 92 -12 134 -31z m693 -536 c136 -123 250 -228 252 -233 3 -10
-57 -78 -69 -78 -3 0 -44 34 -90 75 -80 71 -85 74 -101 58 -9 -10 -119 -132
-243 -271 l-227 -253 -23 18 c-12 10 -50 43 -84 73 l-61 56 245 271 244 272
-47 44 c-27 24 -66 59 -87 79 l-39 35 33 42 c19 23 37 40 41 39 4 -2 119 -104
256 -227z m-4845 -387 c170 -71 308 -133 308 -138 0 -5 -35 -45 -79 -89 l-79
-80 -98 42 c-55 24 -104 45 -109 47 -6 2 -54 -43 -108 -101 l-98 -105 55 -107
55 -107 -50 -53 -49 -52 -201 400 c-169 339 -198 403 -188 417 7 10 40 45 72
79 l60 61 101 -42 c55 -24 239 -101 408 -172z m5408 -201 l154 -186 -38 -33
c-22 -19 -42 -34 -46 -34 -3 0 -44 45 -89 100 -72 86 -86 98 -100 88 -13 -10
-93 -77 -155 -129 -5 -4 28 -50 73 -102 44 -52 81 -99 81 -104 0 -10 -80 -78
-84 -72 -23 33 -160 189 -165 189 -8 0 -198 -153 -204 -164 -1 -2 40 -54 92
-116 51 -62 94 -119 95 -127 0 -8 -16 -29 -36 -45 l-37 -30 -29 33 c-83 95
-312 374 -312 381 0 8 629 538 638 538 4 -1 77 -85 162 -187z m-6052 -382
l302 -253 -31 -39 c-16 -21 -49 -59 -72 -84 l-42 -47 -220 185 c-121 102 -221
184 -223 182 -2 -1 60 -130 138 -285 l141 -281 -32 -40 c-17 -22 -37 -38 -43
-36 -63 23 -579 187 -581 185 -2 -2 95 -86 216 -187 l218 -184 -19 -26 c-11
-14 -32 -41 -48 -60 l-29 -34 -319 268 c-175 147 -321 269 -323 271 -5 4 34
54 91 117 l43 48 306 -100 c169 -56 309 -101 312 -101 3 0 -59 134 -139 298
-79 163 -143 301 -141 305 1 4 36 48 76 97 73 87 75 88 96 72 11 -9 157 -131
323 -271z m6482 -148 c85 -94 151 -178 167 -210 69 -142 24 -263 -125 -333
-36 -17 -60 -21 -116 -18 l-71 3 -63 -187 -64 -187 -93 75 c-71 57 -92 79 -87
92 3 9 38 89 78 177 l71 160 -35 42 -34 43 -52 -46 c-28 -26 -84 -76 -125
-113 l-74 -66 -73 80 c-40 44 -73 82 -73 85 1 7 613 558 621 559 4 1 70 -70
148 -156z"/>
    <path d="M2421 7653 c39 -76 73 -139 74 -141 1 -1 34 33 73 76 l72 79 -139 62
c-77 33 -142 61 -146 61 -4 0 26 -62 66 -137z"/>
    <path d="M8530 6987 c-19 -17 -67 -60 -105 -94 l-69 -63 33 -34 c64 -66 138
-83 199 -46 61 38 90 118 60 173 -15 29 -70 97 -77 97 -3 0 -22 -15 -41 -33z"/>
    <path
      d="M896 5410 c-270 -49 -489 -238 -573 -495 -34 -105 -42 -266 -19 -375
19 -91 89 -236 149 -309 94 -113 239 -205 383 -241 95 -24 251 -26 344 -4 224
52 426 229 510 446 154 402 -78 854 -495 963 -73 19 -232 27 -299 15z m266
-89 c109 -28 178 -65 178 -95 0 -47 -56 -81 -152 -95 -79 -11 -165 1 -288 39
-103 32 -144 61 -138 101 8 59 247 89 400 50z m-452 -124 c0 -26 -14 -62 -50
-125 -27 -48 -61 -118 -75 -157 -15 -38 -28 -71 -30 -73 -17 -17 -90 72 -105
128 -13 48 92 186 195 256 55 38 65 34 65 -29z m778 -75 c54 -64 102 -153 102
-186 0 -50 -59 -143 -138 -217 -97 -90 -191 -138 -290 -146 -67 -5 -75 -4 -97
17 -16 15 -25 34 -25 54 0 66 60 267 107 360 19 38 63 86 78 86 29 0 136 64
152 90 l17 29 27 -20 c15 -10 45 -40 67 -67z m-531 -20 c62 -16 117 -33 122
-37 19 -11 12 -49 -29 -164 -48 -135 -70 -252 -70 -375 0 -100 21 -253 44
-331 26 -82 24 -85 -41 -85 -32 0 -87 7 -123 16 -75 17 -199 75 -228 107 -34
37 -54 123 -59 262 -6 140 9 251 49 375 28 86 93 216 124 247 30 30 51 29 211
-15z m-488 -261 c28 -35 51 -67 51 -70 1 -3 2 -104 3 -223 2 -210 1 -217 -16
-195 -79 100 -122 232 -121 372 0 84 17 196 28 184 2 -2 27 -33 55 -68z m1164
-63 c11 -111 -14 -233 -71 -343 -70 -133 -211 -248 -370 -300 -62 -20 -75 -14
-103 51 -37 83 -63 269 -41 299 4 6 47 17 96 23 187 27 325 115 433 278 20 30
39 54 43 54 4 0 10 -28 13 -62z"/>
    <path
      d="M8964 5406 c-282 -64 -484 -260 -559 -542 -22 -81 -22 -249 0 -339
108 -443 599 -679 1010 -486 204 96 350 273 401 486 22 91 22 249 0 340 -60
247 -250 446 -501 525 -90 28 -263 36 -351 16z m251 -71 c70 -7 142 -33 150
-53 8 -22 -24 -63 -66 -84 -60 -30 -228 -68 -298 -68 -120 0 -221 46 -221 100
0 49 243 125 360 113 14 -1 48 -5 75 -8z m268 -106 c58 -38 147 -135 178 -193
l23 -44 -20 -43 c-41 -92 -97 -128 -110 -71 -11 44 -52 131 -100 213 -43 74
-50 101 -38 147 8 28 11 28 67 -9z m-638 -114 c86 -37 88 -39 112 -74 50 -73
123 -304 123 -387 0 -32 -6 -49 -22 -65 -21 -19 -30 -20 -93 -15 -88 8 -175
48 -266 121 -71 57 -141 152 -160 215 -11 35 -9 43 22 101 19 35 63 94 98 132
l65 68 30 -35 c18 -21 56 -46 91 -61z m536 4 c32 -32 114 -213 138 -304 48
-185 49 -400 1 -528 -18 -47 -27 -57 -82 -89 -81 -46 -183 -77 -280 -85 -88
-7 -89 -6 -63 68 43 121 58 397 31 542 -8 42 -29 115 -47 164 -50 140 -54 159
-41 176 7 8 39 20 71 26 33 6 83 20 113 31 74 26 132 26 159 -1z m349 -259
c17 -70 14 -213 -5 -285 -18 -68 -65 -167 -99 -209 l-23 -29 1 224 1 225 48
54 c26 30 47 58 47 62 0 5 4 8 9 8 5 0 14 -23 21 -50z m-1176 -83 c105 -157
260 -248 464 -273 71 -8 79 -24 62 -136 -14 -101 -45 -195 -72 -225 -19 -21
-22 -21 -71 -6 -287 84 -487 392 -440 676 3 21 9 35 12 30 4 -4 24 -34 45 -66z"/>
    <path d="M7178 2260 c-42 -12 -158 -80 -158 -91 0 -8 200 -360 282 -497 l20
-32 49 27 c70 38 126 89 150 136 17 32 20 54 17 112 -6 126 -101 286 -199 336
-40 20 -112 24 -161 9z"/>
  </g>
</svg>