<?xml version="1.0" standalone="no"?>
<!DOCTYPE svg PUBLIC "-//W3C//DTD SVG 20010904//EN" "http://www.w3.org/TR/2001/REC-SVG-20010904/DTD/svg10.dtd">
<svg version="1.0" xmlns="http://www.w3.org/2000/svg" width="225.000000pt" height="225.000000pt" viewBox="0 0 225.000000 225.000000" preserveAspectRatio="xMidYMid meet">
  <metadata>
    Created by potrace 1.16, written by Peter Selinger 2001-2019
  </metadata>
  <g transform="translate(0.000000,225.000000) scale(0.100000,-0.100000)" fill="#000000" stroke="none">
    <path
      d="M985 2240 c-271 -38 -485 -148 -671 -342 -96 -100 -163 -200 -215
-317 -293 -663 108 -1422 820 -1557 113 -22 301 -21 415 0 388 74 709 348 846
724 83 227 84 520 3 745 -136 379 -445 650 -836 733 -87 18 -280 26 -362 14z
m328 -55 c408 -71 742 -381 853 -790 24 -89 27 -118 28 -260 0 -179 -11 -245
-68 -395 -55 -148 -117 -241 -246 -370 -130 -130 -222 -191 -372 -247 -150
-57 -213 -67 -393 -67 -141 1 -172 4 -260 28 -793 215 -1070 1172 -514 1780
141 154 377 282 592 321 99 18 277 18 380 0z"/>
    <path
      d="M935 2166 c-490 -94 -842 -501 -862 -996 -8 -194 24 -345 108 -514
136 -273 383 -473 684 -553 88 -23 119 -26 260 -26 140 0 172 3 257 26 193 51
356 147 495 290 136 140 221 289 270 475 23 85 26 117 26 257 0 141 -3 172
-26 260 -100 377 -390 666 -770 766 -104 28 -336 35 -442 15z m377 -50 c383
-74 689 -362 789 -744 26 -100 35 -284 20 -392 -72 -493 -497 -860 -996 -860
-271 0 -516 101 -706 290 -177 176 -276 381 -298 621 -47 507 294 974 789
1079 105 23 299 26 402 6z"/>
    <path d="M687 1954 c-3 -4 6 -27 20 -52 18 -30 22 -44 13 -40 -143 54 -155 50
-100 -41 46 -77 52 -82 69 -72 10 7 7 17 -14 51 -14 23 -25 44 -22 46 2 2 30
-7 63 -20 85 -35 93 -22 41 65 -39 64 -54 78 -70 63z"/>
    <path
      d="M1025 1809 c-105 -16 -221 -62 -295 -117 -19 -14 -54 -31 -79 -38
-42 -10 -46 -14 -57 -56 -6 -25 -23 -61 -37 -79 -59 -80 -102 -194 -117 -313
-38 -305 147 -613 431 -720 62 -23 234 -69 254 -68 50 2 261 69 328 104 120
62 221 166 281 290 60 121 76 189 76 313 0 155 -34 269 -118 392 -21 32 -42
75 -46 96 -6 32 -11 37 -34 37 -16 0 -56 18 -91 41 -158 102 -331 144 -496
118z m238 -44 c64 -13 224 -81 214 -91 -2 -2 -46 0 -98 6 -122 13 -400 13
-513 0 -49 -6 -91 -8 -93 -6 -9 9 121 68 191 86 86 23 207 25 299 5z m216
-140 c57 -8 106 -16 108 -18 1 -2 12 -57 24 -123 27 -152 30 -421 6 -532 -40
-185 -170 -344 -363 -444 -127 -66 -130 -66 -236 -15 -192 91 -343 256 -388
427 -32 119 -29 411 5 600 19 101 7 92 155 109 52 6 111 13 130 15 73 9 459
-5 559 -19z m268 -300 c23 -69 27 -97 27 -200 0 -106 -3 -130 -28 -200 -35
-102 -84 -183 -155 -255 -57 -58 -148 -122 -198 -140 l-28 -10 30 22 c17 11
60 52 97 89 80 82 150 214 174 329 18 83 24 351 11 460 l-7 65 25 -40 c14 -22
37 -76 52 -120z m-1182 -92 c0 -265 7 -309 70 -432 32 -65 120 -191 133 -191
4 -1 30 -21 57 -46 l50 -46 -40 20 c-266 132 -416 447 -349 732 11 49 70 200
78 200 1 0 1 -107 1 -237z"/>
    <path
      d="M1095 984 c-16 -14 -42 -36 -58 -50 -15 -13 -33 -24 -40 -24 -7 0
-20 -9 -30 -20 -9 -11 -24 -20 -32 -20 -17 0 -20 -25 -5 -35 6 -3 10 -16 10
-28 0 -12 7 -31 15 -41 8 -11 15 -32 15 -46 0 -14 4 -30 9 -35 5 -6 11 -21 13
-34 3 -25 3 -25 131 -25 124 -1 127 -1 127 21 0 12 5 25 10 28 6 3 10 17 10
30 0 23 15 66 45 126 12 26 11 28 -27 53 -22 14 -43 26 -47 26 -6 0 -55 40
-96 79 -20 19 -20 19 -50 -5z"/>
    <path
      d="M335 1621 c-3 -11 3 -34 15 -54 l21 -35 -23 -6 c-13 -3 -33 -6 -44
-6 -18 0 -42 -27 -32 -35 38 -26 141 -74 148 -70 19 12 9 26 -35 47 -47 23
-44 38 8 38 33 0 32 0 5 45 l-21 37 51 -26 c60 -31 58 -30 66 -11 4 11 -16 26
-74 55 -73 36 -79 38 -85 21z"/>
    <path d="M1843 1562 c-58 -30 -70 -40 -63 -52 8 -12 13 -13 30 -2 25 15 27 15
34 -4 3 -9 -1 -28 -10 -43 -12 -21 -14 -33 -6 -46 9 -17 11 -15 26 13 14 27
20 31 36 22 25 -14 66 3 75 31 7 21 -30 120 -44 119 -3 -1 -38 -18 -78 -38z"/>
  </g>
</svg>