<?xml version="1.0" standalone="no"?>
<!DOCTYPE svg PUBLIC "-//W3C//DTD SVG 20010904//EN" "http://www.w3.org/TR/2001/REC-SVG-20010904/DTD/svg10.dtd">
<svg version="1.0" xmlns="http://www.w3.org/2000/svg" width="600.000000pt" height="600.000000pt" viewBox="0 0 600.000000 600.000000" preserveAspectRatio="xMidYMid meet">
  <metadata>
    Created by potrace 1.16, written by Peter Selinger 2001-2019
  </metadata>
  <g transform="translate(0.000000,600.000000) scale(0.100000,-0.100000)" fill="#000000" stroke="none">
    <path
      d="M2790 5894 c-19 -2 -78 -9 -130 -15 -508 -58 -1006 -261 -1432 -585
-129 -98 -411 -378 -508 -504 -430 -559 -638 -1195 -617 -1890 19 -606 217
-1172 578 -1650 491 -650 1195 -1052 2005 -1146 176 -20 586 -15 739 10 347
57 570 128 870 276 300 148 527 311 766 549 448 448 718 984 825 1636 25 153
30 563 10 739 -141 1217 -1002 2203 -2185 2500 -231 58 -383 77 -651 81 -129
2 -251 1 -270 -1z m236 -130 l60 -6 -4 -223 -4 -222 38 -6 c22 -4 68 -7 103
-7 l64 0 -7 -37 c-3 -21 -6 -48 -6 -60 0 -23 -1 -23 -147 -23 -82 0 -165 3
-185 6 l-38 7 0 146 c0 80 3 210 7 289 l6 142 27 0 c15 0 54 -3 86 -6z m-361
-51 c3 -21 9 -47 11 -59 5 -18 -3 -22 -92 -38 l-96 -19 6 -45 c3 -26 10 -49
14 -53 4 -4 46 0 94 10 97 20 92 22 103 -51 l7 -45 -92 -18 c-84 -16 -91 -19
-86 -39 2 -11 8 -38 11 -58 8 -44 11 -45 120 -22 42 9 81 12 85 7 5 -4 11 -29
15 -55 6 -40 4 -47 -12 -51 -47 -14 -344 -69 -348 -65 -7 6 -118 559 -113 562
2 2 327 70 359 75 4 1 10 -16 14 -36z m1043 -29 c49 -20 90 -60 113 -109 28
-61 25 -71 -28 -89 -61 -21 -73 -20 -73 5 0 23 -18 60 -34 71 -19 13 -54 9
-60 -8 -12 -31 -5 -43 58 -92 69 -55 106 -115 106 -173 0 -50 -43 -130 -86
-158 -70 -48 -195 -38 -270 21 -29 23 -78 118 -66 130 4 3 30 16 59 27 l51 20
11 -31 c16 -46 40 -68 73 -68 21 0 32 7 40 26 12 25 8 29 -70 103 -89 82 -107
117 -96 181 23 125 153 194 272 144z m-1542 -352 l122 -257 -81 -38 c-44 -20
-81 -36 -82 -35 -1 2 -24 49 -50 106 -26 56 -52 102 -57 102 -8 0 -88 -38 -97
-46 -2 -1 20 -50 47 -109 l51 -105 -69 -35 c-38 -19 -76 -35 -83 -35 -7 0 -65
110 -135 258 l-121 257 72 37 c40 20 75 37 79 38 4 0 29 -42 54 -92 25 -51 47
-94 49 -96 2 -2 97 36 103 43 2 1 -17 47 -42 101 -26 53 -45 98 -44 100 9 9
154 70 158 67 3 -2 60 -120 126 -261z m2108 126 l164 -82 -26 -52 -25 -52 -90
44 c-49 25 -90 44 -92 42 -4 -5 -45 -87 -45 -91 0 -1 36 -21 80 -42 44 -21 80
-43 80 -47 0 -8 -38 -88 -45 -96 -2 -2 -40 15 -85 38 -45 23 -83 40 -85 38 -1
-2 -14 -27 -29 -55 l-26 -53 90 -45 90 -45 -25 -50 c-14 -28 -28 -50 -30 -50
-5 0 -327 160 -333 165 -7 6 254 515 264 515 2 0 78 -37 168 -82z m-2831 -287
c21 -5 40 -11 42 -13 2 -2 -2 -26 -9 -53 l-12 -50 -70 3 c-64 4 -73 2 -102
-23 -17 -14 -37 -43 -43 -64 -10 -32 -8 -45 9 -83 24 -54 84 -123 125 -145 38
-19 100 -19 128 1 52 36 73 108 49 170 -9 24 -7 26 47 41 64 19 68 16 79 -53
15 -99 -19 -189 -97 -256 -53 -45 -116 -66 -198 -66 -84 0 -150 30 -209 94
-62 67 -85 125 -85 211 0 135 70 233 196 276 58 20 94 23 150 10z m3348 -278
c-48 -142 -100 -295 -115 -341 l-28 -82 -31 26 c-18 15 -50 42 -71 62 l-39 35
22 66 21 66 -42 37 -43 37 -54 -30 c-30 -16 -59 -29 -65 -29 -17 1 -102 77
-94 85 5 5 619 324 625 325 1 0 -37 -116 -86 -257z m-1446 143 c426 -77 790
-259 1089 -546 337 -323 550 -736 621 -1205 23 -148 23 -433 1 -580 -127 -840
-721 -1506 -1532 -1715 -322 -83 -696 -85 -1017 -4 -764 192 -1353 798 -1521
1564 -151 690 59 1406 559 1905 323 324 729 525 1190 590 133 19 484 13 610
-9z m-2642 -1142 c65 -22 139 -91 167 -156 31 -72 25 -175 -13 -241 -118 -201
-398 -189 -498 22 -25 52 -29 155 -10 206 56 143 212 217 354 169z m4817 -14
c61 -30 97 -65 128 -125 22 -41 27 -64 27 -125 0 -65 -4 -82 -30 -128 -55
-100 -133 -147 -245 -146 -113 0 -191 47 -245 146 -26 46 -30 63 -30 128 0 80
17 126 71 189 26 31 82 65 134 82 43 14 142 3 190 -21z m-4770 -1243 c15 -7
29 -25 35 -44 7 -27 14 -33 36 -33 41 0 63 -36 84 -135 20 -97 15 -133 -22
-150 -17 -7 -21 -15 -16 -38 8 -39 -11 -70 -61 -98 -22 -13 -56 -33 -75 -46
-42 -29 -94 -30 -119 -3 -17 18 -20 19 -32 5 -27 -32 -72 -18 -147 45 -82 69
-103 108 -81 143 14 20 14 24 -8 40 -27 21 -32 75 -11 117 7 14 21 46 30 71
23 60 49 83 92 82 24 -1 35 3 35 13 0 8 9 23 21 35 20 20 28 21 118 14 53 -4
107 -12 121 -18z m4785 -2 c14 -13 25 -29 25 -35 0 -6 10 -8 24 -4 38 9 80
-38 116 -130 33 -86 33 -128 -1 -146 -15 -9 -17 -14 -7 -34 18 -41 1 -72 -77
-140 -61 -53 -82 -66 -109 -66 -18 0 -39 7 -46 15 -11 14 -14 13 -27 -5 -24
-34 -77 -26 -158 24 -89 55 -113 86 -98 125 9 25 8 30 -7 34 -10 3 -26 16 -35
30 -16 25 -15 31 6 123 24 106 43 134 89 134 25 0 30 4 30 23 0 51 54 71 203
76 39 1 53 -4 72 -24z m-4166 -1349 l45 -46 -24 -25 -23 -25 -42 35 c-39 31
-43 33 -58 17 -16 -15 -14 -19 18 -52 l35 -36 -25 -24 -25 -24 -36 35 -35 34
-44 -50 -43 -50 -36 34 c-20 19 -36 39 -36 45 0 6 48 60 108 121 l107 110 35
-27 c19 -14 55 -47 79 -72z m3444 74 c14 -11 29 -29 32 -40 4 -11 13 -20 22
-20 8 0 30 -15 49 -34 56 -56 45 -103 -50 -196 l-56 -55 -118 118 -117 118 68
65 c59 56 72 64 106 64 23 0 48 -8 64 -20z m-242 -232 c92 -127 99 -139 99
-179 0 -48 -36 -92 -94 -114 -68 -26 -100 -7 -185 109 -39 52 -71 99 -71 105
0 11 78 67 83 60 76 -107 142 -189 151 -189 16 0 36 21 36 37 0 8 -30 55 -67
105 l-67 91 28 23 c15 13 29 24 31 24 2 0 27 -33 56 -72z m-2987 -11 c55 -31
78 -78 74 -149 -5 -70 -41 -122 -106 -150 -133 -59 -264 70 -211 209 37 98
154 141 243 90z m2652 -246 c67 -121 65 -120 113 -93 21 12 43 22 49 22 10 0
38 -58 31 -64 -12 -11 -170 -96 -177 -96 -9 0 -162 265 -162 279 0 9 73 49 85
47 6 -1 33 -44 61 -95z m-2307 40 c88 -63 86 -208 -4 -277 -123 -93 -294 20
-254 169 14 53 48 99 91 121 45 23 125 17 167 -13z m2072 -61 c50 -14 63 -31
48 -64 -14 -30 -16 -30 -60 -12 -67 27 -110 -17 -90 -92 14 -50 63 -95 95 -86
29 8 56 42 56 70 0 21 5 24 36 24 l37 0 -6 -47 c-4 -39 -12 -54 -45 -84 -55
-52 -113 -60 -179 -28 -137 68 -136 248 2 310 47 22 57 22 106 9z m-1795 -60
l92 -31 -10 -33 c-9 -29 -15 -33 -40 -32 -29 1 -31 -2 -69 -108 -21 -60 -41
-111 -43 -114 -6 -5 -78 18 -89 28 -5 4 9 60 32 124 l41 117 -25 9 c-29 11
-28 8 -14 49 6 18 16 30 23 27 6 -2 52 -18 102 -36z m263 -74 c106 -23 149
-73 122 -139 -8 -18 -13 -56 -12 -85 2 -46 -1 -56 -28 -82 -21 -22 -39 -30
-64 -30 -53 0 -177 31 -177 44 0 6 14 74 30 151 17 77 30 143 30 147 0 11 25
9 99 -6z m396 -186 c31 -96 58 -181 60 -187 3 -9 -11 -13 -49 -13 -53 0 -53 0
-69 40 -12 32 -20 40 -41 40 -20 0 -30 -8 -43 -36 -16 -32 -21 -35 -46 -30
-16 3 -36 6 -43 6 -9 0 18 64 77 181 49 100 92 180 94 178 1 -2 28 -83 60
-179z m531 38 c21 -137 13 -126 99 -116 27 3 30 0 36 -34 l6 -37 -61 -10
c-120 -20 -156 -23 -156 -15 0 5 -11 76 -25 159 -13 82 -21 153 -17 157 6 6
38 12 83 17 12 1 19 -23 35 -121z m-292 55 c3 -21 6 -77 6 -125 l0 -88 54 0
c53 0 55 -1 61 -31 4 -17 4 -33 0 -37 -4 -4 -53 -9 -109 -10 l-103 -4 -6 84
c-4 45 -7 120 -7 166 l0 82 49 0 c48 0 48 0 55 -37z"/>
    <path
      d="M3241 4578 c-13 -13 -20 -16 -16 -9 14 25 -53 -28 -75 -58 -11 -16
-20 -42 -20 -59 0 -29 -2 -30 -61 -36 -49 -6 -67 -13 -98 -41 -43 -39 -49 -65
-15 -65 13 0 33 -13 48 -31 34 -41 35 -93 1 -143 -14 -21 -20 -34 -13 -30 11
6 11 4 0 -7 -20 -21 -146 -25 -177 -5 -32 21 -32 21 -40 -14 -10 -43 11 -95
51 -128 l35 -29 -20 -54 c-11 -29 -35 -75 -53 -102 l-33 -49 -85 6 c-47 3 -98
9 -114 12 -23 6 -27 4 -22 -7 4 -8 0 -5 -8 5 -9 11 -16 17 -16 13 0 -10 -163
73 -172 87 -4 6 -8 7 -8 3 0 -5 -11 4 -24 20 -13 15 -39 37 -56 47 l-33 19 5
-27 c3 -14 1 -26 -3 -26 -5 0 -9 26 -9 58 0 54 2 59 30 75 44 27 129 116 152
161 43 84 33 192 -25 267 -69 89 -212 134 -302 94 -22 -10 -43 -18 -46 -17 -4
1 -28 -17 -53 -40 -66 -57 -90 -108 -90 -188 -1 -106 53 -186 158 -235 l39
-19 -31 -15 c-40 -19 -40 -28 -1 -39 18 -4 35 -17 39 -28 7 -16 3 -20 -19 -22
-64 -5 -104 -69 -77 -123 14 -28 14 -34 1 -52 -19 -27 -19 -58 0 -83 8 -10 15
-31 15 -46 0 -33 32 -68 60 -68 20 0 20 -7 20 -293 l0 -293 -35 -33 c-19 -18
-35 -36 -35 -41 0 -4 -11 -11 -25 -14 -29 -7 -44 -32 -51 -82 -4 -32 -2 -35
13 -29 10 5 34 9 53 11 19 1 25 0 14 -2 -34 -8 -57 -78 -36 -112 7 -9 13 -8
27 8 27 30 42 24 49 -19 3 -21 11 -43 18 -49 10 -8 12 -65 10 -241 -3 -222 -3
-231 -22 -231 -29 0 -26 -37 3 -43 l22 -4 -22 -2 c-18 -1 -23 -7 -23 -30 0
-26 4 -29 41 -34 23 -3 46 -10 51 -15 5 -5 -3 -7 -21 -4 -27 4 -32 0 -47 -32
-17 -34 -17 -37 2 -58 19 -22 19 -22 0 -8 -18 14 -19 14 -8 -7 18 -33 52 -53
90 -53 46 0 71 16 88 55 15 37 7 74 -23 107 -15 17 -14 18 10 18 26 0 27 2 27
60 0 53 -2 60 -20 60 -19 0 -20 7 -20 199 0 191 1 200 19 196 14 -2 20 4 24
24 12 59 85 117 152 121 68 5 95 -1 125 -26 l31 -27 59 25 c80 35 163 92 241
166 49 46 69 59 76 50 5 -7 27 -43 49 -80 36 -62 42 -68 74 -69 33 -1 32 -2
-11 -9 -55 -9 -93 -28 -178 -87 -222 -154 -337 -333 -282 -436 8 -15 31 -38
53 -52 31 -21 38 -31 38 -58 0 -109 -49 -232 -105 -267 -27 -17 -49 -19 -152
-18 -104 1 -126 -2 -164 -20 -66 -32 -92 -88 -73 -159 4 -15 15 -23 38 -26
l31 -4 -34 -1 c-33 -2 -34 -2 -28 -42 3 -23 11 -47 17 -55 17 -21 40 -19 40 3
0 32 37 56 87 56 44 1 47 -1 53 -29 9 -42 29 -77 41 -70 5 4 9 0 9 -7 0 -7 9
5 19 28 23 50 64 84 102 84 21 0 29 -5 29 -18 0 -10 14 -31 32 -48 17 -16 28
-22 24 -14 -4 8 0 6 8 -4 14 -17 16 -17 16 -3 0 50 31 77 107 97 64 16 100 52
119 118 46 171 84 215 219 258 38 12 39 13 15 20 -63 19 -125 60 -143 96 -16
33 -17 40 -3 72 17 42 78 88 152 116 76 28 86 26 113 -22 29 -52 113 -141 156
-168 17 -11 54 -24 82 -30 44 -10 53 -16 62 -42 15 -44 14 -152 -3 -193 -19
-44 -36 -52 -127 -57 -86 -5 -158 -34 -184 -74 -19 -29 -34 -110 -16 -84 9 12
11 10 11 -12 0 -20 6 -28 23 -31 22 -4 22 -4 -2 -6 -19 -1 -22 -5 -17 -23 3
-13 6 -27 7 -33 1 -5 5 4 9 20 l8 30 1 -36 c1 -45 11 -55 25 -26 15 30 72 57
124 57 40 0 42 -1 42 -30 0 -18 9 -39 22 -52 l22 -22 8 30 c10 40 37 64 79 70
31 5 35 2 49 -28 8 -18 21 -32 28 -30 6 1 12 -4 12 -10 0 -7 8 3 18 22 16 33
31 42 93 55 15 2 30 13 34 22 4 10 11 95 15 188 5 114 14 188 25 225 24 76 71
167 113 219 27 33 31 43 17 37 -11 -5 -49 -11 -85 -13 -53 -4 -75 -1 -117 17
-83 35 -176 148 -208 249 l-8 25 33 -28 c81 -67 188 -101 320 -101 80 1 104 5
151 27 96 44 135 122 119 238 -11 80 -39 138 -115 239 -35 48 -69 99 -74 115
-12 29 -5 76 11 76 5 0 7 4 4 8 -6 9 -4 10 65 18 43 5 50 3 88 -31 45 -41 60
-86 42 -135 -8 -24 -7 -29 2 -23 7 4 15 8 19 8 3 0 10 4 15 9 5 5 2 6 -6 1
-10 -5 -12 -4 -7 4 4 6 12 9 18 5 24 -15 98 84 112 153 15 66 -31 155 -95 189
-50 25 -125 35 -182 23 -63 -14 -96 -30 -142 -70 -42 -37 -45 -27 -9 27 42 62
92 110 211 200 114 87 173 147 192 197 18 46 13 157 -8 202 -52 111 -175 160
-307 120 -94 -28 -154 -100 -154 -182 l1 -38 13 30 c7 17 24 39 36 50 13 11
21 15 18 10 -4 -7 8 -9 34 -7 71 7 108 -30 108 -106 0 -51 -25 -88 -106 -158
-214 -183 -269 -276 -245 -409 15 -80 45 -134 128 -231 94 -109 123 -168 123
-247 0 -101 -45 -147 -142 -147 -69 0 -139 21 -182 54 -19 14 -36 23 -40 21
-3 -3 -4 -2 -1 1 2 4 -2 13 -10 20 -30 31 -74 174 -100 329 -26 155 -44 219
-72 260 -7 11 -13 43 -13 71 l0 51 54 0 c96 0 166 64 166 151 0 34 -18 90 -35
110 -2 2 -14 -8 -28 -22 -44 -44 -119 -26 -157 37 -25 40 -27 135 -4 182 29
62 115 66 183 9 l30 -25 -1 88 -1 88 -42 -3 c-46 -4 -75 15 -75 50 0 30 63 88
95 88 35 0 65 -17 65 -37 0 -9 13 3 28 28 16 24 36 50 45 58 9 7 17 24 17 38
0 20 4 23 19 18 15 -4 24 1 34 22 19 37 14 46 -43 87 -26 19 -51 44 -55 55 -5
15 -21 22 -78 31 -203 34 -330 104 -353 194 -8 32 -13 32 -43 4z m-1106 -218
c-3 -5 3 -10 15 -10 27 0 70 -43 70 -70 0 -32 -44 -70 -80 -70 -18 0 -29 -4
-25 -10 10 -16 -1 -11 -16 7 -12 14 -12 16 1 9 9 -4 8 -1 -2 7 -29 23 -24 85
10 118 28 30 37 36 27 19z m191 -871 c38 -12 74 -25 80 -30 6 -5 14 -5 18 -1
4 4 7 2 5 -3 -1 -5 3 -22 9 -37 14 -33 1 -75 -25 -85 -15 -6 -15 -7 3 -14 14
-6 11 -8 -16 -9 l-35 -1 30 -24 c63 -52 189 -37 261 30 20 19 41 35 45 35 5 0
19 -17 32 -37 l24 -38 -121 -68 c-67 -38 -164 -100 -217 -138 -112 -80 -171
-109 -219 -107 -23 0 -27 2 -12 5 l22 4 0 270 0 269 24 0 c13 0 55 -9 92 -21z"/>
    <path d="M3932 4059 c-47 -38 -145 -44 -185 -11 -8 7 -17 3 -29 -13 -17 -23
-17 -24 18 -54 28 -25 43 -31 82 -31 57 0 104 26 127 70 23 45 17 64 -13 39z"/>
    <path d="M444 3799 c-24 -25 -26 -31 -14 -39 8 -5 20 -10 25 -10 6 0 60 -29
120 -65 60 -36 110 -65 112 -65 8 0 32 74 25 79 -79 56 -166 107 -198 117 -40
12 -43 11 -70 -17z"/>
    <path d="M388 3715 c-9 -21 -8 -28 8 -46 29 -32 96 -68 175 -95 87 -29 88 -29
98 -1 7 19 3 26 -38 51 -71 45 -204 116 -219 116 -7 0 -18 -11 -24 -25z"/>
    <path d="M731 3652 c-10 -20 -35 -77 -55 -127 -32 -78 -34 -91 -22 -104 13
-13 18 -11 36 10 61 73 117 259 77 259 -9 0 -25 -17 -36 -38z"/>
    <path d="M373 3610 c7 -57 50 -99 133 -129 103 -39 111 -39 129 4 8 21 14 39
13 40 -2 0 -30 9 -63 19 -60 19 -149 61 -194 93 l-24 18 6 -45z"/>
    <path d="M5497 3815 c-20 -7 -75 -37 -121 -66 l-85 -53 15 -35 c8 -19 16 -37
19 -39 2 -2 37 16 77 41 40 25 99 58 131 73 60 30 68 42 40 66 -30 25 -37 27
-76 13z"/>
    <path d="M5561 3725 c-62 -27 -221 -127 -221 -138 0 -7 4 -18 9 -26 15 -24
174 33 253 92 28 21 34 40 22 71 -7 19 -19 20 -63 1z"/>
    <path d="M5230 3668 c0 -61 40 -163 87 -226 23 -30 27 -32 41 -19 13 14 12 23
-12 84 -58 145 -78 183 -97 183 -13 0 -19 -7 -19 -22z"/>
    <path d="M5595 3621 c-43 -30 -143 -75 -194 -86 -35 -7 -35 -9 -20 -54 11 -30
14 -32 46 -26 65 12 143 48 178 82 28 28 35 41 35 73 0 22 -1 40 -2 40 -2 -1
-21 -14 -43 -29z"/>
    <path d="M548 2623 c-30 -7 -31 -41 -3 -99 31 -63 59 -73 70 -24 8 35 25 40
25 8 0 -32 15 -52 34 -45 8 3 29 25 46 49 39 54 37 89 -5 99 -39 9 -145 17
-167 12z"/>
    <path d="M416 2538 c-9 -12 -16 -27 -16 -33 0 -5 -12 -32 -25 -60 -38 -76 -30
-105 29 -105 37 0 106 18 106 28 0 4 -14 20 -32 35 l-33 29 39 -6 c54 -7 70 7
51 44 -24 46 -66 90 -85 90 -11 0 -26 -10 -34 -22z"/>
    <path d="M750 2484 c-41 -38 -48 -50 -40 -65 6 -11 24 -19 48 -21 l37 -3 -32
-18 c-18 -10 -33 -22 -33 -27 0 -16 60 -41 103 -43 39 -2 42 0 45 26 4 33 -25
166 -40 184 -18 22 -37 15 -88 -33z"/>
    <path d="M447 2306 c-47 -17 -67 -34 -67 -55 0 -20 114 -125 147 -135 29 -9
50 23 59 92 6 45 4 52 -11 52 -9 0 -28 -9 -42 -20 -33 -26 -39 -20 -19 18 18
35 12 62 -13 62 -9 -1 -33 -7 -54 -14z"/>
    <path d="M694 2287 c-3 -8 0 -26 6 -41 17 -47 11 -51 -24 -17 -33 32 -34 33
-45 13 -12 -23 -14 -74 -5 -109 11 -40 41 -38 116 9 107 66 113 89 32 135 -44
26 -72 29 -80 10z"/>
    <path d="M5387 2620 c-108 -11 -120 -42 -48 -129 34 -41 61 -37 61 9 0 39 15
39 29 0 5 -16 17 -30 25 -30 17 0 66 88 66 119 0 21 -28 42 -52 40 -7 -1 -44
-5 -81 -9z"/>
    <path d="M5568 2549 c-27 -15 -69 -94 -62 -113 5 -14 15 -16 48 -11 l41 6 -28
-26 c-16 -14 -26 -32 -24 -40 7 -16 86 -30 123 -21 23 6 25 11 21 39 -5 37
-47 138 -66 161 -15 18 -29 20 -53 5z"/>
    <path d="M5208 2517 c-7 -8 -22 -51 -32 -97 -22 -97 -16 -116 35 -114 40 1
109 29 109 43 0 6 -17 19 -37 30 l-38 20 41 1 c29 0 44 5 48 16 8 21 -35 79
-74 99 -35 18 -35 18 -52 2z"/>
    <path d="M5518 2308 c-3 -7 3 -30 14 -50 21 -44 18 -46 -23 -17 -36 25 -61 19
-55 -13 3 -13 8 -40 11 -60 6 -39 35 -65 58 -52 6 4 40 32 75 62 74 65 81 95
30 117 -55 22 -105 29 -110 13z"/>
    <path d="M5271 2278 c-85 -44 -82 -69 18 -130 82 -50 106 -56 120 -30 14 27
14 129 0 138 -6 3 -27 -9 -46 -27 -33 -32 -35 -33 -27 -9 13 41 10 74 -6 77
-8 2 -35 -7 -59 -19z"/>
    <path d="M1482 1035 c-82 -69 -75 -183 8 -140 32 16 80 90 80 121 0 47 -43 57
-88 19z"/>
    <path d="M1807 830 c-34 -40 -55 -106 -40 -128 18 -30 58 -26 86 8 34 40 55
106 40 128 -18 30 -58 26 -86 -8z"/>
  </g>
</svg>