<svg version="1.0" xmlns="http://www.w3.org/2000/svg" width="225.000000pt" height="225.000000pt" viewBox="0 0 225.000000 225.000000" preserveAspectRatio="xMidYMid meet">
  <metadata>
    Created by potrace 1.16, written by Peter Selinger 2001-2019
  </metadata>
  <g transform="translate(0.000000,225.000000) scale(0.100000,-0.100000)" fill="#000000" stroke="none">
    <path
      d="M1051 2188 c-103 -48 -202 -70 -321 -71 -118 -1 -185 11 -314 55 -72
24 -90 27 -97 16 -18 -29 -89 -259 -109 -353 -30 -143 -37 -358 -16 -511 65
-491 347 -909 833 -1233 51 -33 95 -61 98 -61 10 0 219 142 270 184 166 137
292 272 394 421 251 367 334 785 245 1225 -15 74 -87 302 -103 329 -7 11 -25
8 -97 -17 -131 -44 -197 -56 -314 -55 -119 1 -216 23 -325 72 -37 17 -71 31
-74 30 -3 0 -35 -14 -70 -31z m249 -134 c154 -45 364 -40 510 11 23 8 48 15
55 15 14 0 66 -173 91 -305 24 -124 24 -378 1 -500 -63 -323 -221 -610 -469
-851 -92 -90 -282 -241 -343 -274 -20 -11 -31 -7 -99 39 -257 173 -478 415
-605 661 -119 229 -165 418 -165 675 0 176 14 267 66 448 28 98 33 108 52 104
12 -3 57 -15 101 -28 66 -18 105 -22 225 -22 128 0 155 3 230 26 47 14 105 34
130 45 44 19 46 19 90 0 25 -11 83 -31 130 -44z"/>
    <path
      d="M968 1918 c-40 -11 -51 -28 -19 -28 32 0 71 -56 71 -101 0 -46 -9
-65 -57 -129 -46 -60 -63 -103 -63 -159 0 -73 41 -144 114 -200 145 -110 175
-160 156 -260 -17 -90 -57 -142 -120 -156 -20 -4 -38 -21 -59 -53 -28 -45 -49
-102 -37 -102 3 0 31 13 63 29 99 50 192 63 267 36 l38 -13 -27 28 c-16 16
-47 38 -71 50 -29 13 -46 28 -50 45 -8 33 8 51 59 64 24 6 52 20 62 31 l18 20
-36 -15 c-36 -15 -77 -20 -77 -10 0 4 8 20 17 38 11 21 16 49 14 82 -2 41 4
63 33 121 46 91 111 143 199 159 41 8 42 13 31 99 -6 40 -10 46 -30 46 -29 0
-32 16 -5 25 17 5 18 10 9 35 -5 17 -12 30 -14 30 -3 0 -22 -9 -43 -19 -50
-26 -95 -78 -116 -137 -25 -68 -30 -71 -70 -50 -35 19 -93 94 -97 125 -1 9 -2
84 -2 168 -1 149 -2 153 -26 177 -30 29 -81 39 -132 24z m95 -19 c35 -16 47
-50 47 -133 0 -99 -10 -166 -25 -166 -7 0 -25 10 -40 21 -24 19 -26 27 -21 63
3 23 9 65 12 94 4 28 10 52 15 52 17 0 9 40 -11 50 -21 11 -27 30 -10 30 5 0
20 -5 33 -11z"/>
    <path d="M1085 772 c-65 -22 -115 -58 -115 -82 0 -22 25 -37 129 -74 l74 -27
20 22 c17 18 27 21 70 16 55 -7 77 -21 77 -48 0 -35 18 -19 25 21 9 52 -2 113
-25 143 -37 47 -162 61 -255 29z"/>
    <path d="M946 642 c-10 -17 24 -110 57 -153 87 -115 234 -110 318 10 30 43 30
44 4 17 -25 -25 -33 -28 -72 -23 -47 5 -80 28 -85 58 -2 14 -27 30 -88 55
-102 43 -126 49 -134 36z"/>
  </g>
</svg>