<?xml version="1.0" standalone="no"?>
<!DOCTYPE svg PUBLIC "-//W3C//DTD SVG 20010904//EN" "http://www.w3.org/TR/2001/REC-SVG-20010904/DTD/svg10.dtd">
<svg version="1.0" xmlns="http://www.w3.org/2000/svg" width="300.000000pt" height="300.000000pt" viewBox="0 0 300.000000 300.000000" preserveAspectRatio="xMidYMid meet">
  <metadata>
    Created by potrace 1.16, written by Peter Selinger 2001-2019
  </metadata>
  <g transform="translate(0.000000,300.000000) scale(0.100000,-0.100000)" fill="#000000" stroke="none">
    <path
      d="M1230 2983 c-47 -8 -137 -32 -201 -53 -500 -165 -875 -576 -996
-1090 -37 -156 -43 -427 -15 -595 36 -211 119 -414 244 -598 69 -101 249 -290
343 -357 168 -123 358 -210 559 -258 102 -24 128 -26 326 -26 244 0 343 15
520 81 215 79 386 190 555 358 208 207 351 470 411 760 29 137 26 462 -4 602
-65 298 -199 541 -416 758 -227 226 -497 368 -795 419 -121 21 -411 20 -531
-1z m390 -94 c627 -59 1127 -511 1244 -1125 105 -558 -64 -1080 -460 -1419
-83 -70 -213 -160 -220 -152 -3 3 -1 22 5 44 6 21 11 43 11 50 0 7 -39 -7 -92
-32 -210 -99 -379 -137 -608 -137 -231 0 -406 40 -615 141 -414 201 -698 602
-762 1071 -18 137 -13 396 11 532 50 278 173 507 385 718 102 101 283 241 295
229 3 -3 0 -24 -5 -48 -5 -24 -8 -45 -7 -46 2 -2 43 16 92 40 147 72 311 118
478 134 121 12 122 12 248 0z"/>
    <path
      d="M1365 2479 c-16 -50 -32 -92 -36 -94 -3 -3 -48 24 -100 60 -51 35
-94 63 -95 62 -1 -1 4 -40 11 -87 8 -46 13 -85 12 -87 -2 -1 -29 15 -62 37
-33 22 -61 38 -63 36 -4 -4 86 -186 92 -186 2 0 32 13 67 28 123 55 181 66
339 66 80 0 162 -5 183 -11 34 -11 37 -10 42 10 29 125 35 154 35 167 0 8 -21
-6 -48 -33 -26 -26 -51 -47 -55 -47 -4 0 -7 28 -8 63 -2 115 -4 116 -89 21
-41 -46 -77 -84 -80 -84 -3 0 -25 34 -50 76 -25 41 -50 79 -56 84 -7 7 -20
-20 -39 -81z"/>
    <path
      d="M1410 2260 c-69 -9 -240 -60 -240 -72 0 -4 4 -8 10 -8 12 0 80 -60
80 -71 0 -5 -12 -4 -26 1 -37 15 -87 12 -111 -5 -32 -22 -46 -83 -33 -141 6
-25 9 -49 6 -51 -8 -8 -46 49 -55 84 -5 18 -7 49 -4 68 3 20 1 35 -4 35 -18 0
-150 -145 -191 -210 -42 -66 -44 -80 -12 -80 49 0 49 -9 0 -89 -63 -107 -133
-321 -103 -321 5 0 32 7 59 15 27 8 52 15 55 15 3 0 5 -69 5 -152 -1 -116 3
-169 17 -218 24 -89 37 -120 52 -120 16 0 121 111 178 188 l47 64 12 -29 c12
-26 15 -237 6 -383 -3 -41 0 -46 26 -59 99 -47 265 -57 381 -21 39 12 99 35
134 51 35 16 67 29 72 29 4 0 14 -21 21 -47 l13 -46 62 52 c107 89 178 200
209 327 24 105 21 101 52 71 16 -15 31 -27 34 -27 4 0 14 32 22 70 49 214 19
401 -95 593 -36 61 -42 67 -54 51 -11 -16 -14 -15 -31 11 -11 16 -19 45 -19
63 0 46 -26 64 -54 38 -19 -18 -22 -18 -47 -2 -49 33 -37 7 32 -70 l69 -77
-47 6 c-26 4 -70 2 -98 -3 l-51 -10 -55 58 c-50 53 -54 60 -49 95 l5 38 -29
-15 c-27 -14 -33 -14 -78 6 -65 29 -120 29 -160 0 -18 -13 -33 -27 -33 -31 0
-16 82 -44 133 -46 28 -2 58 -3 65 -4 16 -1 112 -90 112 -104 0 -6 -50 -8
-133 -5 -157 4 -187 16 -228 93 -17 30 -38 53 -55 60 l-29 11 45 33 c25 18 52
36 60 41 12 7 12 11 1 24 -8 9 -12 18 -10 19 64 49 159 87 218 87 25 0 60 -14
111 -45 l75 -44 13 36 c6 20 14 38 15 40 2 1 46 -26 97 -62 51 -36 95 -64 96
-62 8 7 -30 124 -44 141 -34 37 -200 114 -215 99 -3 -2 -1 -18 3 -34 11 -37 1
-37 -35 1 -56 58 -121 70 -275 50z m443 -587 c35 -22 37 -26 37 -76 0 -51 -1
-54 -48 -90 -61 -46 -156 -90 -179 -83 -21 7 -108 166 -96 175 42 31 126 81
158 94 46 18 75 13 128 -20z m194 -29 c7 -27 13 -65 13 -84 0 -43 -18 -110
-29 -110 -10 0 -51 53 -70 88 -7 13 -13 42 -13 65 0 34 5 46 32 70 17 15 37
26 43 24 6 -2 17 -26 24 -53z m-77 -236 c23 -39 25 -76 7 -121 -16 -36 -64
-97 -78 -97 -4 0 -11 23 -15 50 -4 28 -8 50 -11 50 -2 0 -26 -11 -53 -25 -27
-14 -55 -25 -63 -25 -7 0 -23 20 -35 45 l-21 44 27 19 c82 59 149 92 185 92
31 0 40 -5 57 -32z"/>
    <path d="M257 1574 c-18 -18 -5 -34 28 -34 32 0 35 -3 35 -28 0 -44 26 -72 66
-72 51 0 76 30 72 88 l-3 47 -95 3 c-53 1 -99 0 -103 -4z"/>
    <path
      d="M370 1156 c-31 -12 -55 -29 -55 -37 0 -14 9 -15 73 -3 47 9 43 -21
-5 -43 -21 -10 -39 -18 -41 -19 -1 -1 0 -8 4 -17 5 -15 9 -15 46 0 27 11 42
13 50 5 15 -15 1 -32 -38 -48 -19 -8 -34 -19 -34 -24 0 -20 27 -21 73 -1 36
15 47 26 47 42 0 22 -46 148 -59 161 -3 3 -31 -4 -61 -16z"/>
    <path d="M965 485 c-27 -26 -32 -62 -12 -88 10 -14 96 -52 103 -45 1 2 13 28
27 59 l25 56 -44 22 c-57 27 -69 26 -99 -4z"/>
    <path d="M1121 431 c-40 -40 -14 -121 39 -121 11 0 20 -5 20 -10 0 -20 -30
-22 -56 -5 -20 13 -29 14 -38 5 -8 -9 -5 -16 13 -31 29 -24 83 -25 103 -1 12
13 58 138 58 157 0 1 -13 5 -30 9 -16 3 -43 9 -59 12 -22 4 -34 1 -50 -15z"/>
  </g>
</svg>